<svg width="98" height="98" viewBox="0 0 98 98" fill="none" xmlns="http://www.w3.org/2000/svg">
<rect width="98" height="98" rx="4" fill="#F1F5F9"/>
<path d="M81.9879 32.277C81.9108 31.5671 81.4697 30.9388 80.8103 30.6311L49.8724 16.1935C49.3196 15.9355 48.6809 15.9355 48.1281 16.1935L17.1902 30.6311C16.531 30.9388 16.0898 31.567 16.0126 32.277C16.011 32.2918 16 32.4893 16 32.5002V67.5631C16 68.4064 16.5134 69.1649 17.2966 69.478L48.2344 81.8531C48.4802 81.9515 48.7404 82.0007 49.0004 82.0007C49.2604 82.0007 49.5205 81.9516 49.7663 81.8531L80.7042 69.478C81.4873 69.1649 82.0008 68.4064 82.0008 67.5631V32.5002C82.0008 32.4893 81.9895 32.2917 81.9879 32.277V32.277ZM49.0004 20.3385L74.7489 32.3545L64.8341 36.3205L38.601 25.1916L49.0004 20.3385ZM33.5714 27.5388L59.3976 38.495L49.0004 42.6538L23.2518 32.3545L33.5714 27.5388ZM20.125 35.5465L46.9379 46.2716V76.8917L20.125 66.1666V35.5465ZM51.0629 76.8919V46.2716L77.8757 35.5465V66.1666L51.0629 76.8919Z" fill="black" fill-opacity="0.25"/>
</svg>
